<svg width="48" height="48" viewBox="0 0 48 48" fill="none" xmlns="http://www.w3.org/2000/svg">
<path d="M34 22.9V16.1C34 14.6 33.36 14 31.77 14H27.73C26.14 14 25.5 14.6 25.5 16.1V22.9C25.5 24.4 26.14 25 27.73 25H31.77C33.36 25 34 24.4 34 22.9Z" stroke="#5F6D7E" stroke-width="2" stroke-linecap="round" stroke-linejoin="round"/>
<path d="M34 31.9V30.1C34 28.6 33.36 28 31.77 28H27.73C26.14 28 25.5 28.6 25.5 30.1V31.9C25.5 33.4 26.14 34 27.73 34H31.77C33.36 34 34 33.4 34 31.9Z" stroke="#5F6D7E" stroke-width="2" stroke-linecap="round" stroke-linejoin="round"/>
<path d="M22.5 25.1V31.9C22.5 33.4 21.86 34 20.27 34H16.23C14.64 34 14 33.4 14 31.9V25.1C14 23.6 14.64 23 16.23 23H20.27C21.86 23 22.5 23.6 22.5 25.1Z" stroke="#5F6D7E" stroke-width="2" stroke-linecap="round" stroke-linejoin="round"/>
<path d="M22.5 16.1V17.9C22.5 19.4 21.86 20 20.27 20H16.23C14.64 20 14 19.4 14 17.9V16.1C14 14.6 14.64 14 16.23 14H20.27C21.86 14 22.5 14.6 22.5 16.1Z" stroke="#5F6D7E" stroke-width="2" stroke-linecap="round" stroke-linejoin="round"/>
</svg>
